<?xml version="1.0" standalone="no"?><!DOCTYPE svg PUBLIC "-//W3C//DTD SVG 1.1//EN" "http://www.w3.org/Graphics/SVG/1.1/DTD/svg11.dtd"><svg t="1605682186217" class="icon" viewBox="0 0 1088 1024" version="1.1" xmlns="http://www.w3.org/2000/svg" p-id="3673" xmlns:xlink="http://www.w3.org/1999/xlink" width="34" height="32"><defs><style type="text/css"></style></defs><path d="M477.504 528.64c3.008-29.184 21.312-43.776 55.04-43.776 22.208 0 58.88 3.328 83.008-9.984 34.56-19.072 52.992-40.704 58.176-71.04 9.216-54.016 21.248-119.744 91.84-119.744 70.528 0 93.504 49.216 93.504 104.704 0 35.456-1.792 61.184-6.592 76.352-0.192 0.64 66.112-0.64 93.056 0 26.88 0.64 55.04 12.928 70.592 34.944 15.616 21.952 14.08 42.432 11.136 63.232-2.944 20.864-18.944 153.344-28.352 200.32-9.472 47.04-59.648 99.84-121.408 99.84h-364.8c-11.264 0-35.2-11.84-35.2-33.92V528.64z m61.44 14.08v259.2h335.488c30.528 0 60.672-26.368 65.6-57.6 4.928-31.104 22.656-160.128 23.936-172.672 1.28-12.544 9.088-24.704-1.28-38.848-10.432-14.08-55.552-8.576-75.84-9.088a2586.88 2586.88 0 0 0-56.96 0c-12.032 0.128-29.184 0.064-37.632-10.368-8.512-10.496-4.096-23.04-4.032-23.296 3.584-11.392 14.272-31.424 14.272-79.936 0-49.28-6.848-62.72-36.928-62.72-30.144 0-30.144 48.192-38.528 85.248-5.056 22.528-32.32 60.608-56.96 79.36-16.32 12.544-54.08 27.52-70.208 29.376-16.064 1.92-36.416 2.304-60.928 1.28zM105.28 192h831.552c17.92 0 32.64-14.336 32.64-32 0-17.536-14.592-32-32.64-32H105.28a32.384 32.384 0 0 0-32.64 32c0 17.664 14.72 32 32.64 32zM369.408 458.432H106.24a32.384 32.384 0 0 0-32.704 32c0 17.6 14.72 32 32.64 32h263.168a32.96 32.96 0 0 0 33.344-32 33.408 33.408 0 0 0-33.28-32zM367.232 785.024H105.28a32.384 32.384 0 0 0-32.64 32c0 17.6 14.656 32 32.64 32h261.888c17.92 0 33.344-14.336 33.344-32a33.408 33.408 0 0 0-33.28-32z" fill="#f4ea2a" p-id="3674"></path></svg>