<?xml version="1.0" encoding="utf-8"?>
<svg version="1.1" xmlns:xlink="http://www.w3.org/1999/xlink" width="39px" height="39px" xmlns="http://www.w3.org/2000/svg">
  <g transform="matrix(1 0 0 1 -145 -877 )">
    <path d="M 38.958481192335 1.48188920454545  C 39.0230660042583 1.86044034090909  38.9630943931867 2.22514204545454  38.7785663591199 2.57599431818182  L 21.0638750887154 38.0305397727273  C 20.750177430802 38.6768465909091  20.2242725337119 39  19.486160397445 39  C 19.3938963804116 39  19.2555003548616 38.9815340909091  19.0709723207949 38.9446022727273  C 18.6650106458481 38.8522727272727  18.3374733853797 38.64453125  18.0883605393896 38.3213778409091  C 17.8392476933996 37.9982244318182  17.7146912704045 37.6335227272727  18 37.2272727272727  L 18 21  L 1.77146912704045 21  C 1.36550745209368 21.2727272727273  1.00106458481192 21.1480823863636  0.678140525195174 20.8987926136364  C 0.355216465578424 20.6495028409091  0.147622427253371 20.3217329545455  0.0553584102200142 19.9154829545455  C -0.0369056068133428 19.5092329545455  0 19.1214488636364  0.166075230660043 18.7521306818182  C 0.332150461320085 18.3828125  0.599716110716821 18.1058238636364  0.968772178850248 17.9211647727273  L 36.3981547196593 0.193892045454547  C 36.6380411639461 0.0646306818181793  36.9056068133428 0  37.2008516678495 0  C 37.6990773598297 0  38.1142654364798 0.175426136363633  38.4464158977999 0.526278409090911  C 38.7232079488999 0.784801136363633  38.8938963804116 1.10333806818181  38.958481192335 1.48188920454545  Z " fill-rule="nonzero" fill="#fb4c6b" stroke="none" transform="matrix(1 0 0 1 145 877 )" />
  </g>
</svg>