<svg t="1605688118880" class="icon" viewBox="0 0 1395 1024" version="1.1" xmlns="http://www.w3.org/2000/svg" p-id="2844" width="32" height="32"><path d="M1222.249192-0.034755H175.056493a174.28822 174.28822 0 0 0-123.728539 50.779187 174.251636 174.251636 0 0 0-51.218201 123.509033v675.494899a174.251636 174.251636 0 0 0 174.251636 174.251636H1221.554088a174.251636 174.251636 0 0 0 174.251636-174.251636V174.253465A174.28822 174.28822 0 0 0 1222.358945 0.001829z m-7.316886 392.51434l-491.621558 319.74791a46.389056 46.389056 0 0 1-50.376759 0l-491.621558-319.74791a47.267082 47.267082 0 0 1-21.950658-41.779418 47.267082 47.267082 0 0 1 25.170087-39.986781 47.230498 47.230498 0 0 1 47.193914 1.829221l466.8539 302.1508 466.8539-300.577669a47.267082 47.267082 0 0 1 47.193913-1.829222 47.230498 47.230498 0 0 1 25.170087 39.986781 47.230498 47.230498 0 0 1-21.950657 41.779418z m0 0" fill="#2c2c2c" p-id="2845"></path></svg>