<?xml version="1.0" encoding="utf-8"?>
<svg version="1.1" xmlns:xlink="http://www.w3.org/1999/xlink" width="64px" height="64px" xmlns="http://www.w3.org/2000/svg">
  <g transform="matrix(1 0 0 1 -691 -106 )">
    <path d="M 64 32  C 64 14.32  49.68 0  32 0  C 14.32 0  0 14.32  0 32  C 0 49.68  14.32 64  32 64  C 49.68 64  64 49.68  64 32  Z M 35.2 48  L 35.2 54.4  L 28.8 54.4  L 28.8 48  L 35.2 48  Z M 44.8 22.4  C 44.8 25.216  43.664 27.76  41.808 29.616  L 38.944 32.56  C 36.64 34.864  35.2 36.8  35.2 41.6  L 28.8 41.6  L 28.8 40  C 28.8 36.464  30.24 33.264  32.544 30.944  L 36.528 26.912  C 37.68 25.76  38.4 24.16  38.4 22.4  C 38.4 18.864  35.536 16  32 16  C 28.464 16  25.6 18.864  25.6 22.4  L 19.2 22.4  C 19.2 15.328  24.928 9.6  32 9.6  C 39.072 9.6  44.8 15.328  44.8 22.4  Z " fill-rule="nonzero" fill="#f05f40" stroke="none" transform="matrix(1 0 0 1 691 106 )" />
  </g>
</svg>